HIERARCHY
ROOT mixamorig:Hips
{
	OFFSET 0.000000 201.639420 0.000000
	CHANNELS 6 Xposition Yposition Zposition Xrotation Yrotation Zrotation
	JOINT mixamorig:Spine
	{
		OFFSET 0.006200 19.524994 -2.481800
		CHANNELS 3 Xrotation Yrotation Zrotation
		JOINT mixamorig:Spine1
		{
			OFFSET -0.000900 22.835007 -2.825400
			CHANNELS 3 Xrotation Yrotation Zrotation
			JOINT mixamorig:Spine2
			{
				OFFSET -0.020600 26.552490 -3.193300
				CHANNELS 3 Xrotation Yrotation Zrotation
				JOINT mixamorig:Neck
				{
					OFFSET -0.060000 30.701813 1.352200
					CHANNELS 3 Xrotation Yrotation Zrotation
					JOINT mixamorig:Head
					{
						OFFSET -0.087200 22.547607 3.670900
						CHANNELS 3 Xrotation Yrotation Zrotation
						JOINT mixamorig:HeadTop_End
						{
							OFFSET -0.830600 40.355194 7.893500
							CHANNELS 3 Xrotation Yrotation Zrotation
							End Site
							{
								OFFSET 0.000000 30.592346 0.000000
							}
						}
						JOINT mixamorig:RightEye
						{
							OFFSET -6.302100 18.118591 16.197100
							CHANNELS 3 Xrotation Yrotation Zrotation
							End Site
							{
								OFFSET 0.000000 30.592346 0.000000
							}
						}
						JOINT mixamorig:LeftEye
						{
							OFFSET 6.741500 18.382690 16.401899
							CHANNELS 3 Xrotation Yrotation Zrotation
							End Site
							{
								OFFSET 0.000000 30.592346 0.000000
							}
						}
					}
				}
				JOINT mixamorig:LeftShoulder
				{
					OFFSET 11.924900 18.230499 1.425400
					CHANNELS 3 Xrotation Yrotation Zrotation
					JOINT mixamorig:LeftArm
					{
						OFFSET 25.435989 -0.697632 -5.229300
						CHANNELS 3 Xrotation Yrotation Zrotation
						JOINT mixamorig:LeftForeArm
						{
							OFFSET 54.684776 0.000000 0.000000
							CHANNELS 3 Xrotation Yrotation Zrotation
							JOINT mixamorig:LeftHand
							{
								OFFSET 55.098175 0.000000 0.000000
								CHANNELS 3 Xrotation Yrotation Zrotation
								JOINT mixamorig:LeftHandMiddle1
								{
									OFFSET 23.369751 0.000000 0.000000
									CHANNELS 3 Xrotation Yrotation Zrotation
									JOINT mixamorig:LeftHandMiddle2
									{
										OFFSET 6.378677 0.000000 0.000000
										CHANNELS 3 Xrotation Yrotation Zrotation
										JOINT mixamorig:LeftHandMiddle3
										{
											OFFSET 6.148331 0.000000 0.000000
											CHANNELS 3 Xrotation Yrotation Zrotation
											JOINT mixamorig:LeftHandMiddle4
											{
												OFFSET 6.582504 0.000000 0.000000
												CHANNELS 3 Xrotation Yrotation Zrotation
												End Site
												{
													OFFSET -1.168900 6.395691 1.028606
												}
											}
										}
									}
								}
								JOINT mixamorig:LeftHandThumb1
								{
									OFFSET 7.235672 -3.848206 5.434273
									CHANNELS 3 Xrotation Yrotation Zrotation
									JOINT mixamorig:LeftHandThumb2
									{
										OFFSET 6.568451 -3.792297 3.792300
										CHANNELS 3 Xrotation Yrotation Zrotation
										JOINT mixamorig:LeftHandThumb3
										{
											OFFSET 6.063080 -3.500519 3.500518
											CHANNELS 3 Xrotation Yrotation Zrotation
											JOINT mixamorig:LeftHandThumb4
											{
												OFFSET 4.793182 -2.767334 2.767349
												CHANNELS 3 Xrotation Yrotation Zrotation
												End Site
												{
													OFFSET 0.101639 6.054260 1.275483
												}
											}
										}
									}
								}
								JOINT mixamorig:LeftHandIndex1
								{
									OFFSET 23.101074 -0.309540 4.992809
									CHANNELS 3 Xrotation Yrotation Zrotation
									JOINT mixamorig:LeftHandIndex2
									{
										OFFSET 6.226883 0.000000 0.000000
										CHANNELS 3 Xrotation Yrotation Zrotation
										JOINT mixamorig:LeftHandIndex3
										{
											OFFSET 6.094330 0.000000 0.000000
											CHANNELS 3 Xrotation Yrotation Zrotation
											JOINT mixamorig:LeftHandIndex4
											{
												OFFSET 5.482605 0.000000 0.000000
												CHANNELS 3 Xrotation Yrotation Zrotation
												End Site
												{
													OFFSET -1.427902 5.233032 0.797164
												}
											}
										}
									}
								}
								JOINT mixamorig:LeftHandRing1
								{
									OFFSET 22.299240 0.021149 -3.964172
									CHANNELS 3 Xrotation Yrotation Zrotation
									JOINT mixamorig:LeftHandRing2
									{
										OFFSET 6.321869 0.000000 0.000000
										CHANNELS 3 Xrotation Yrotation Zrotation
										JOINT mixamorig:LeftHandRing3
										{
											OFFSET 5.899796 0.000000 0.000000
											CHANNELS 3 Xrotation Yrotation Zrotation
											JOINT mixamorig:LeftHandRing4
											{
												OFFSET 6.517899 0.000000 0.000000
												CHANNELS 3 Xrotation Yrotation Zrotation
												End Site
												{
													OFFSET -1.637299 6.232208 0.980890
												}
											}
										}
									}
								}
								JOINT mixamorig:LeftHandPinky1
								{
									OFFSET 20.463791 -0.302338 -8.562233
									CHANNELS 3 Xrotation Yrotation Zrotation
									JOINT mixamorig:LeftHandPinky2
									{
										OFFSET 6.908646 0.000000 0.000000
										CHANNELS 3 Xrotation Yrotation Zrotation
										JOINT mixamorig:LeftHandPinky3
										{
											OFFSET 4.622849 0.000000 0.000000
											CHANNELS 3 Xrotation Yrotation Zrotation
											JOINT mixamorig:LeftHandPinky4
											{
												OFFSET 5.216080 0.000000 0.000000
												CHANNELS 3 Xrotation Yrotation Zrotation
												End Site
												{
													OFFSET -0.606308 5.116241 0.814926
												}
											}
										}
									}
								}
							}
						}
					}
				}
				JOINT mixamorig:RightShoulder
				{
					OFFSET -12.001300 18.284088 1.348900
					CHANNELS 3 Xrotation Yrotation Zrotation
					JOINT mixamorig:RightArm
					{
						OFFSET -25.308500 -0.751312 -5.164599
						CHANNELS 3 Xrotation Yrotation Zrotation
						JOINT mixamorig:RightForeArm
						{
							OFFSET -54.684429 0.000000 0.000000
							CHANNELS 3 Xrotation Yrotation Zrotation
							JOINT mixamorig:RightHand
							{
								OFFSET -55.150291 0.000000 0.000000
								CHANNELS 3 Xrotation Yrotation Zrotation
								JOINT mixamorig:RightHandMiddle1
								{
									OFFSET -23.317566 0.000000 0.000000
									CHANNELS 3 Xrotation Yrotation Zrotation
									JOINT mixamorig:RightHandMiddle2
									{
										OFFSET -6.378403 0.000000 0.000000
										CHANNELS 3 Xrotation Yrotation Zrotation
										JOINT mixamorig:RightHandMiddle3
										{
											OFFSET -6.148193 0.000000 0.000000
											CHANNELS 3 Xrotation Yrotation Zrotation
											JOINT mixamorig:RightHandMiddle4
											{
												OFFSET -6.583389 0.000000 0.000000
												CHANNELS 3 Xrotation Yrotation Zrotation
												End Site
												{
													OFFSET 1.171692 6.395905 1.029786
												}
											}
										}
									}
								}
								JOINT mixamorig:RightHandThumb1
								{
									OFFSET -7.190521 -3.860474 5.435846
									CHANNELS 3 Xrotation Yrotation Zrotation
									JOINT mixamorig:RightHandThumb2
									{
										OFFSET -6.567429 -3.791718 3.791708
										CHANNELS 3 Xrotation Yrotation Zrotation
										JOINT mixamorig:RightHandThumb3
										{
											OFFSET -6.062469 -3.500153 3.500166
											CHANNELS 3 Xrotation Yrotation Zrotation
											JOINT mixamorig:RightHandThumb4
											{
												OFFSET -4.792618 -2.767029 2.767022
												CHANNELS 3 Xrotation Yrotation Zrotation
												End Site
												{
													OFFSET -0.100327 6.053253 1.276754
												}
											}
										}
									}
								}
								JOINT mixamorig:RightHandIndex1
								{
									OFFSET -23.048981 -0.310791 4.992554
									CHANNELS 3 Xrotation Yrotation Zrotation
									JOINT mixamorig:RightHandIndex2
									{
										OFFSET -6.227539 0.000000 0.000000
										CHANNELS 3 Xrotation Yrotation Zrotation
										JOINT mixamorig:RightHandIndex3
										{
											OFFSET -6.095047 0.000000 0.000000
											CHANNELS 3 Xrotation Yrotation Zrotation
											JOINT mixamorig:RightHandIndex4
											{
												OFFSET -5.484772 0.000000 0.000000
												CHANNELS 3 Xrotation Yrotation Zrotation
												End Site
												{
													OFFSET 1.420593 5.237305 0.797056
												}
											}
										}
									}
								}
								JOINT mixamorig:RightHandRing1
								{
									OFFSET -22.246323 0.020569 -3.963762
									CHANNELS 3 Xrotation Yrotation Zrotation
									JOINT mixamorig:RightHandRing2
									{
										OFFSET -6.322128 0.000000 0.000000
										CHANNELS 3 Xrotation Yrotation Zrotation
										JOINT mixamorig:RightHandRing3
										{
											OFFSET -5.900024 0.000000 0.000000
											CHANNELS 3 Xrotation Yrotation Zrotation
											JOINT mixamorig:RightHandRing4
											{
												OFFSET -6.518356 0.000000 0.000000
												CHANNELS 3 Xrotation Yrotation Zrotation
												End Site
												{
													OFFSET 1.636398 6.232697 0.982186
												}
											}
										}
									}
								}
								JOINT mixamorig:RightHandPinky1
								{
									OFFSET -20.411011 -0.303314 -8.561701
									CHANNELS 3 Xrotation Yrotation Zrotation
									JOINT mixamorig:RightHandPinky2
									{
										OFFSET -6.907349 0.000000 0.000000
										CHANNELS 3 Xrotation Yrotation Zrotation
										JOINT mixamorig:RightHandPinky3
										{
											OFFSET -4.623840 0.000000 0.000000
											CHANNELS 3 Xrotation Yrotation Zrotation
											JOINT mixamorig:RightHandPinky4
											{
												OFFSET -5.218353 0.000000 0.000000
												CHANNELS 3 Xrotation Yrotation Zrotation
												End Site
												{
													OFFSET 0.602097 5.118835 0.816273
												}
											}
										}
									}
								}
							}
						}
					}
				}
			}
		}
	}
	JOINT mixamorig:LeftUpLeg
	{
		OFFSET 18.168400 -13.561905 -0.039000
		CHANNELS 3 Xrotation Yrotation Zrotation
		JOINT mixamorig:LeftLeg
		{
			OFFSET 0.577358 -80.825211 -3.695000
			CHANNELS 3 Xrotation Yrotation Zrotation
			JOINT mixamorig:LeftFoot
			{
				OFFSET -0.577356 -83.370262 -6.520700
				CHANNELS 3 Xrotation Yrotation Zrotation
				JOINT mixamorig:LeftToeBase
				{
					OFFSET 0.750401 -20.798306 25.135401
					CHANNELS 3 Xrotation Yrotation Zrotation
					JOINT mixamorig:LeftToe_End
					{
						OFFSET -0.000500 0.001200 19.917799
						CHANNELS 3 Xrotation Yrotation Zrotation
						End Site
						{
							OFFSET 0.000000 19.917805 0.000000
						}
					}
				}
			}
		}
	}
	JOINT mixamorig:RightUpLeg
	{
		OFFSET -18.162500 -13.585098 -0.041000
		CHANNELS 3 Xrotation Yrotation Zrotation
		JOINT mixamorig:RightLeg
		{
			OFFSET -0.595024 -80.945297 -3.631900
			CHANNELS 3 Xrotation Yrotation Zrotation
			JOINT mixamorig:RightFoot
			{
				OFFSET 0.595024 -83.218193 -6.561200
				CHANNELS 3 Xrotation Yrotation Zrotation
				JOINT mixamorig:RightToeBase
				{
					OFFSET -0.753601 -20.807106 25.115000
					CHANNELS 3 Xrotation Yrotation Zrotation
					JOINT mixamorig:RightToe_End
					{
						OFFSET 0.000299 0.001700 19.918200
						CHANNELS 3 Xrotation Yrotation Zrotation
						End Site
						{
							OFFSET 0.000000 19.918203 0.000000
						}
					}
				}
			}
		}
	}
}
MOTION
Frames: 5
Frame Time: 0.033333
0.071316 201.650253 0.034771 -0.013330 2.186625 -0.650415 -0.131158 0.568664 -0.800403 -0.256228 1.062907 -0.309171 -0.262509 1.422744 1.793872 8.430174 0.588532 3.789745 -6.886641 -2.443148 -5.539758 0.000000 0.000000 -0.000000 0.000000 0.000000 -0.000000 0.000000 0.000000 -0.000000 -4.812429 -10.638835 -12.165654 16.248098 -28.511627 -68.250959 -0.000001 -9.304193 0.000005 -11.492938 6.083112 -2.144724 0.445645 4.440814 -20.097905 0.256638 1.716608 -17.004627 0.038510 0.671350 -6.565860 0.000001 0.000001 -0.000005 -2.869004 3.737991 9.040660 12.472128 25.898418 0.622565 -17.724341 -15.287019 3.804870 -0.000002 0.000001 0.000001 0.722042 5.242885 -19.056443 0.227578 1.618569 -16.006210 0.038542 0.671674 -6.569005 0.000000 0.000000 0.000005 -1.275387 0.689780 -24.655216 0.393933 2.113800 -21.110923 0.038503 0.671358 -6.566044 0.000001 -0.000000 0.000001 -3.278074 -3.337880 -25.923165 0.433223 2.212833 -22.151967 0.038518 0.671411 -6.566556 0.000000 -0.000002 0.000000 -2.186307 -0.070431 11.813295 19.530648 39.087055 62.980464 -0.000002 10.816453 -0.000000 -14.442107 0.541893 0.114934 1.071334 -5.664541 22.565425 0.287589 -1.612769 20.219983 0.025320 -0.485491 5.970824 0.000004 -0.000000 -0.000001 -6.843519 -4.635844 -19.349916 11.509340 -15.497960 5.716602 -16.635137 13.070717 -16.105984 -0.000001 -0.000001 -0.000002 1.032476 -6.407041 15.661426 0.131290 -1.099128 13.622116 0.025320 -0.485509 5.970884 0.000002 -0.000000 0.000001 -1.022075 -1.296846 27.059046 0.416618 -1.927119 24.395945 0.025325 -0.485513 5.970859 -0.000001 -0.000002 0.000003 -2.357579 0.081117 32.964617 0.636607 -2.352317 30.282583 0.025318 -0.485521 5.970925 -0.000003 -0.000003 0.000001 -7.843229 10.878972 2.349777 7.331607 -3.235530 -0.160900 0.253037 6.088962 -0.065138 -0.004278 -0.000002 0.000000 -0.000000 0.000000 0.000000 -4.758896 0.637507 1.166445 2.475499 -5.312381 0.065424 2.273370 2.829184 -0.718614 -0.005443 0.000001 -0.000000 0.000000 -0.000000 -0.000000 
0.018789 201.530746 0.162023 -0.046975 2.182476 -0.607872 -0.130946 0.553308 -0.816378 -0.256218 1.048209 -0.309171 -0.262588 1.412632 1.793872 8.408576 0.588530 3.778347 -7.756339 -2.389106 -5.418301 0.000000 -0.000000 0.000000 0.000000 -0.000000 0.000000 0.000000 -0.000000 0.000000 -4.058623 -7.890651 -12.501994 10.131537 -29.945475 -69.625767 0.000001 -0.828391 -0.000004 -11.872150 0.170128 -2.691156 0.481196 4.546034 -19.335673 0.257227 1.718530 -17.024392 0.038576 0.671957 -6.571802 -0.000003 -0.000000 -0.000003 -2.733401 3.849586 8.841450 12.524571 25.964182 0.607658 -17.870560 -15.651389 3.758038 0.000002 0.000001 0.000002 0.752431 5.299918 -19.033254 0.227909 1.619713 -16.017676 0.038505 0.671360 -6.565979 0.000000 0.000001 -0.000001 -1.170002 0.887076 -24.452260 0.386188 2.093667 -20.900143 0.035711 0.646555 -6.322283 0.000000 -0.000002 -0.000003 -3.120148 -3.043014 -25.795169 0.429887 2.204607 -22.065194 0.037444 0.662049 -6.474543 0.000002 -0.000001 0.000001 -1.827954 -0.255622 12.654215 20.329618 36.916421 61.550017 -0.000011 12.730795 -0.000015 -14.664730 0.114120 -0.692553 1.083761 -5.716218 22.292312 0.287703 -1.613090 20.224134 0.025504 -0.487203 5.991715 0.000001 0.000003 -0.000001 -6.906615 -4.579199 -19.258142 11.552748 -15.579919 5.715860 -16.612308 13.041510 -16.115104 -0.000002 -0.000003 -0.000002 1.023367 -6.398946 15.534779 0.131574 -1.100335 13.637498 0.025444 -0.486769 5.986325 -0.000000 0.000001 -0.000003 -0.964513 -1.388685 26.889531 0.415971 -1.925661 24.376257 0.025110 -0.483483 5.945885 -0.000002 0.000002 0.000004 -2.350927 0.100909 32.804845 0.636610 -2.352306 30.282593 0.025431 -0.486599 5.984285 -0.000001 0.000001 0.000001 -8.217001 10.894787 2.414963 8.215212 -3.348214 -0.160737 -0.224697 6.174049 -0.062353 -0.038166 -0.000002 0.000000 0.000000 0.000002 0.000000 -5.928147 0.600155 1.147389 4.938363 -5.286890 0.065406 1.013664 2.822392 -0.622851 0.006344 -0.000000 0.000000 0.000000 -0.000000 0.000000 
-0.036283 201.425369 0.252148 -0.068396 2.163968 -0.590905 -0.100060 0.548003 -0.812036 -0.225472 1.042963 -0.298933 -0.231747 1.404431 1.793872 8.378304 0.588530 3.754665 -9.574108 -2.346609 -5.117628 -0.000000 -0.000000 0.000000 -0.000000 -0.000000 0.000000 -0.000000 -0.000000 0.000000 -3.158425 -4.780620 -12.950851 12.151705 -28.838855 -66.640148 -0.000013 -9.481664 0.000011 -13.976055 -2.947991 -4.609277 0.424375 4.414331 -16.949012 0.240804 1.663949 -16.467811 0.032129 0.613373 -5.996643 -0.000002 -0.000000 -0.000000 -3.346189 2.783256 8.283977 11.946263 25.209267 0.848070 -18.142673 -16.332092 3.668540 0.000000 -0.000001 0.000001 0.681600 5.245730 -17.037769 0.228822 1.622898 -16.050079 0.038667 0.672725 -6.579453 -0.000001 0.000001 -0.000000 -1.065070 0.906753 -23.234883 0.352582 2.003493 -19.959891 0.025610 0.547795 -5.353500 -0.000004 -0.000001 0.000003 -3.020880 -3.156461 -24.893210 0.406087 2.144987 -21.437961 0.030508 0.597718 -5.842990 0.000000 -0.000001 0.000001 -1.401783 -0.482318 13.485430 21.489874 34.139239 59.743993 0.000005 16.374573 -0.000012 -14.008530 -0.281691 -1.650527 1.097265 -5.778885 21.940984 0.288295 -1.614700 20.245184 0.025698 -0.489103 6.015234 0.000001 0.000002 -0.000004 -7.109835 -4.368507 -19.062136 11.513471 -15.506573 5.716461 -16.585304 12.997657 -16.128194 0.000000 0.000001 0.000001 1.003665 -6.381315 15.260007 0.131713 -1.100892 13.644606 0.025513 -0.487307 5.993021 0.000003 -0.000000 -0.000004 -0.906551 -1.476534 26.671030 0.415195 -1.923980 24.353618 0.024868 -0.481219 5.917891 0.000004 0.000000 0.000003 -2.352868 0.136992 32.601883 0.636200 -2.351620 30.272829 0.025595 -0.488157 6.003536 0.000001 0.000000 0.000001 -8.557651 10.892225 2.494373 8.978914 -3.427332 -0.160619 -0.630824 6.256256 -0.062842 -0.067961 -0.000002 -0.000000 0.000000 0.000002 0.000000 -6.541117 0.684983 1.168953 6.244089 -5.257717 0.065471 0.339654 2.714830 -0.582239 0.012780 0.000001 -0.000000 0.000000 0.000000 0.000000 
-0.124855 201.338943 0.301848 -0.086093 2.125236 -0.612971 -0.017794 0.567594 -0.809799 -0.143309 1.062588 -0.293248 -0.149472 1.422872 1.793871 8.393623 0.590380 3.720288 -11.597564 -2.299934 -4.823963 0.000000 0.000000 -0.000000 0.000000 0.000000 -0.000000 0.000000 0.000000 -0.000000 -2.069900 -1.409027 -13.214756 15.369952 -28.569068 -63.071189 0.000008 -21.754480 0.000016 -16.105105 -7.111225 -5.396560 0.248311 3.821246 -13.519928 0.207651 1.547448 -15.284797 0.020463 0.489796 -4.785252 -0.000003 -0.000002 0.000000 -4.930474 0.247169 7.535502 10.696085 23.529973 1.354484 -18.471939 -17.158405 3.555617 0.000001 -0.000002 0.000002 0.512951 4.924998 -13.399020 0.220921 1.595193 -15.768737 0.035169 0.641610 -6.273825 -0.000001 0.000002 -0.000000 -1.052551 0.453571 -20.771287 0.299949 1.852239 -18.395416 0.012731 0.386572 -3.775080 -0.000002 -0.000001 -0.000002 -3.002567 -3.709165 -23.181141 0.357593 2.017262 -20.103151 0.018081 0.460372 -4.497082 0.000003 0.000001 0.000002 -0.903491 -0.772828 14.147064 22.809212 30.694269 57.948220 0.000007 22.001600 0.000002 -12.519515 -0.178529 -2.579829 1.111120 -5.837096 21.674864 0.290218 -1.619891 20.313278 0.026304 -0.494827 6.085931 -0.000005 0.000000 -0.000000 -7.474078 -3.969615 -18.797738 11.299257 -15.112475 5.719619 -16.564896 12.979913 -16.134285 -0.000001 0.000000 0.000001 0.968633 -6.321474 14.910868 0.131386 -1.099565 13.627657 0.025351 -0.485875 5.975474 0.000001 -0.000000 -0.000002 -0.876071 -1.522197 26.545672 0.416168 -1.926099 24.382221 0.025084 -0.483199 5.942428 -0.000003 -0.000000 0.000001 -2.397697 0.198736 32.499263 0.635497 -2.350409 30.255467 0.025247 -0.484792 5.961977 -0.000001 0.000001 0.000002 -8.875861 10.933473 2.626528 9.644685 -3.413123 -0.160520 -0.972756 6.214270 -0.080052 -0.096747 0.000007 0.000000 -0.000000 -0.000000 -0.000000 -6.874226 -0.649741 1.112564 7.004692 -3.662668 0.065465 -0.046204 2.484127 -0.625774 0.009386 -0.000001 0.000000 -0.000000 0.000000 0.000000 
-0.267841 201.299866 0.328189 -0.116867 2.082852 -0.679817 0.086189 0.649607 -0.806213 -0.039298 1.144469 -0.293688 -0.045375 1.504730 1.793871 8.531127 0.594151 3.683479 -12.443259 -2.240682 -4.725044 0.000000 0.000000 0.000000 0.000000 0.000000 0.000000 0.000000 0.000000 0.000000 -0.854746 2.090541 -13.080165 19.004938 -30.369695 -59.250450 -0.000010 -34.137405 -0.000031 -17.319543 -12.180456 -3.489218 0.026344 2.650644 -9.898467 0.165996 1.386057 -13.657154 0.008707 0.319681 -3.121210 -0.000000 -0.000001 0.000001 -7.244671 -3.341287 6.737483 9.058351 21.218059 1.984234 -18.813215 -18.019057 3.434913 0.000002 -0.000002 -0.000000 0.291423 4.231236 -9.185179 0.194586 1.498789 -14.792928 0.024839 0.539477 -5.271976 0.000004 -0.000000 -0.000001 -1.089923 -0.584659 -17.065585 0.239493 1.659498 -16.422421 0.002937 0.185638 -1.811786 0.000005 -0.000002 -0.000000 -2.894128 -4.274553 -20.886442 0.292525 1.829777 -18.164342 0.005778 0.260212 -2.540060 -0.000003 0.000002 0.000004 -0.365303 -1.092137 14.651692 24.219016 26.849638 56.457650 -0.000009 29.032621 0.000012 -10.694861 0.989701 -3.233278 1.109995 -5.852122 21.483928 0.291018 -1.622040 20.341394 0.026559 -0.497198 6.115079 -0.000001 0.000002 -0.000001 -7.957717 -3.396593 -18.597280 10.873846 -14.335152 5.715087 -16.568815 13.016569 -16.124955 -0.000001 0.000002 0.000003 0.912440 -6.179494 14.559219 0.130997 -1.097963 13.607367 0.025183 -0.484176 5.954291 -0.000000 -0.000001 0.000000 -0.876839 -1.511202 26.470050 0.416915 -1.927762 24.404541 0.025246 -0.484868 5.963039 -0.000002 -0.000000 0.000001 -2.461109 0.269455 32.389351 0.631128 -2.342938 30.149083 0.023490 -0.467621 5.750185 -0.000002 0.000004 0.000002 -9.067918 11.001212 2.807014 10.049846 -3.337135 -0.160418 -1.173146 6.082414 -0.127800 -0.125278 -0.000002 0.000000 -0.000000 0.000002 0.000000 -6.940927 1.577293 1.463024 7.112774 -5.536390 0.061247 -0.107909 2.146103 -0.622567 0.000020 0.000000 0.000000 0.000000 -0.000000 -0.000000 
